<svg xmlns="http://www.w3.org/2000/svg" version="1.1" xmlns:xlink="http://www.w3.org/1999/xlink" xmlns:svgjs="http://svgjs.com/svgjs" width="1000" height="1000"><rect width="1000" height="1000" rx="200" ry="200" fill="#ede8e8"></rect><g transform="matrix(21.715526511576375,0,0,21.715526511576375,100,100)"><svg xmlns="http://www.w3.org/2000/svg" version="1.1" xmlns:xlink="http://www.w3.org/1999/xlink" xmlns:svgjs="http://svgjs.com/svgjs" width="36.84000015258789" height="36.84000015258789"><svg xmlns="http://www.w3.org/2000/svg" viewBox="0 8.859999656677246 36.84000015258789 36.84000015258789" data-asc="0.9052734375"><g fill="#000000"><g fill="#000000" transform="translate(0, 0)"><path d="M18.43 8.86Q23.07 8.86 27.49 11.24Q31.91 13.62 34.38 18.05Q36.84 22.49 36.84 27.29Q36.84 32.06 34.41 36.45Q31.98 40.84 27.60 43.27Q23.22 45.70 18.43 45.70Q13.65 45.70 9.27 43.27Q4.88 40.84 2.44 36.45Q0 32.06 0 27.29Q0 22.49 2.48 18.05Q4.96 13.62 9.38 11.24Q13.79 8.86 18.43 8.86M18.43 11.91Q14.55 11.91 10.88 13.90Q7.20 15.89 5.13 19.59Q3.05 23.29 3.05 27.29Q3.05 31.27 5.09 34.92Q7.13 38.57 10.79 40.61Q14.45 42.65 18.43 42.65Q22.41 42.65 26.07 40.61Q29.74 38.57 31.76 34.92Q33.79 31.27 33.79 27.29Q33.79 23.29 31.73 19.59Q29.66 15.89 25.98 13.90Q22.29 11.91 18.43 11.91M24.34 30.27L27.34 31.15Q26.61 34.20 24.23 36.02Q21.85 37.84 18.46 37.84Q14.16 37.84 11.47 35.06Q8.79 32.28 8.79 27.34Q8.79 24.12 10.01 21.74Q11.23 19.36 13.49 18.15Q15.75 16.94 18.65 16.94Q21.90 16.94 24.05 18.49Q26.20 20.04 26.98 22.71L24.07 23.41Q23.34 21.61 21.91 20.64Q20.48 19.68 18.55 19.68Q15.75 19.68 13.93 21.68Q12.11 23.68 12.11 27.42Q12.11 31.15 13.83 33.07Q15.55 34.99 18.29 34.99Q20.48 34.99 22.14 33.72Q23.80 32.45 24.34 30.27Z"></path></g></g></svg></svg></g></svg>